<svg xmlns="http://www.w3.org/2000/svg" width="100" height="100" viewBox="0 0 100 100">
  <!-- Simple circuit board pattern -->
  <!-- Horizontal lines -->
  <path d="M10,0 L90,0 M10,25 L90,25 M10,50 L90,50 M10,75 L90,75" stroke="#00c3ff" stroke-width="0.5" fill="none" />
  
  <!-- Vertical lines -->
  <path d="M0,10 L0,90 M25,10 L25,90 M50,10 L50,90 M75,10 L75,90" stroke="#00c3ff" stroke-width="0.5" fill="none" />
  
  <!-- Connection nodes -->
  <circle cx="25" cy="25" r="2" fill="#0084ff" />
  <circle cx="75" cy="25" r="2" fill="#0084ff" />
  <circle cx="50" cy="50" r="2" fill="#0084ff" />
  <circle cx="25" cy="75" r="2" fill="#0084ff" />
  <circle cx="75" cy="75" r="2" fill="#0084ff" />
  
  <!-- Circuit paths -->
  <path d="M25,25 L50,50 L25,75" stroke="#0055ff" stroke-width="0.8" fill="none" />
  <path d="M75,25 L50,50 L75,75" stroke="#0055ff" stroke-width="0.8" fill="none" />
</svg>